<svg width="16" height="16" viewBox="0 0 16 16" fill="none" xmlns="http://www.w3.org/2000/svg">
<path fill-rule="evenodd" clip-rule="evenodd" d="M12.9242 0.125V2.375H15.0663V3.875H12.9242V6.1175C12.9242 6.1175 11.5032 6.125 11.496 6.1175V3.875H9.35384C9.35384 3.875 9.36098 2.3825 9.35384 2.375H11.496V0.125H12.9242ZM11.496 14.375H1.49917V3.875H7.92572V2.375H1.49917C0.7137 2.375 0.0710449 3.05 0.0710449 3.875V14.375C0.0710449 15.2 0.7137 15.875 1.49917 15.875H11.496C12.2815 15.875 12.9242 15.2 12.9242 14.375V7.625H11.496V14.375ZM5.93349 11.9975L4.53393 10.2275L2.57026 12.875H10.4249L7.89716 9.3425L5.93349 11.9975Z" fill="#F16334"/>
</svg>
